# Blender v2.79 (sub 0) OBJ File: ''
# www.blender.org
mtllib memory_card.mtl
o group0
v -1.500000 -0.150000 3.050000
v 1.550000 -0.350000 2.850000
v 1.500000 -0.150000 3.050000
v -1.500000 -0.150000 3.050000
v -1.550000 -0.350000 2.850000
v 1.550000 -0.350000 2.850000
v -1.500000 0.399999 3.050000
v 1.500000 -0.150000 3.050000
v 1.500000 0.399999 3.050000
v -1.500000 0.399999 3.050000
v -1.500000 -0.150000 3.050000
v 1.500000 -0.150000 3.050000
v -1.850000 -0.150000 2.800000
v -1.550000 -0.350000 2.850000
v -1.500000 -0.150000 3.050000
v -1.800000 -0.350000 2.500000
v -1.550000 -0.350000 2.850000
v -1.850000 -0.150000 2.800000
v -1.500000 0.399999 3.050000
v -1.850000 -0.150000 2.800000
v -1.500000 -0.150000 3.050000
v -1.500000 0.399999 3.050000
v -1.850000 0.400000 2.800000
v -1.850000 -0.150000 2.800000
v 1.550000 -0.350000 2.850000
v 1.850000 -0.150000 2.800000
v 1.500000 -0.150000 3.050000
v 1.550000 -0.350000 2.850000
v 1.800000 -0.350000 2.500000
v 1.850000 -0.150000 2.800000
v -1.500000 0.399999 3.050000
v -1.850000 -0.150000 2.800000
v -1.500000 -0.150000 3.050000
v -1.500000 0.399999 3.050000
v -1.850000 0.400000 2.800000
v -1.850000 -0.150000 2.800000
v 1.500000 0.399999 3.050000
v 1.850000 -0.150000 2.800000
v 1.850000 0.400000 2.800000
v 1.500000 0.399999 3.050000
v 1.500000 -0.150000 3.050000
v 1.850000 -0.150000 2.800000
v -1.850000 0.400000 2.800000
v 1.500000 0.399999 3.050000
v 1.850000 0.400000 2.800000
v -1.850000 0.400000 2.800000
v -1.500000 0.399999 3.050000
v 1.500000 0.399999 3.050000
v -1.550000 -0.350000 2.850000
v 1.800000 -0.350000 2.500000
v 1.550000 -0.350000 2.850000
v -1.550000 -0.350000 2.850000
v -1.800000 -0.350000 2.500000
v 1.800000 -0.350000 2.500000
v -2.000000 0.400000 2.350000
v -1.850000 -0.150000 2.800000
v -1.850000 0.400000 2.800000
v -2.000000 0.400000 2.350000
v -2.000000 -0.150000 2.350000
v -1.850000 -0.150000 2.800000
v 2.000000 0.400000 2.350000
v 1.850000 -0.150000 2.800000
v 2.000000 -0.150000 2.350000
v 2.000000 0.400000 2.350000
v 1.850000 0.400000 2.800000
v 1.850000 -0.150000 2.800000
v -1.800000 -0.350000 2.500000
v -1.850000 -0.150000 2.800000
v -2.000000 -0.150000 2.350000
v 1.850000 -0.150000 2.800000
v 1.800000 -0.350000 2.500000
v 2.000000 -0.150000 2.350000
v -1.850000 0.400000 2.800000
v 2.000000 0.400000 2.350000
v -2.000000 0.400000 2.350000
v -1.850000 0.400000 2.800000
v 1.850000 0.400000 2.800000
v 2.000000 0.400000 2.350000
v -1.800000 -0.350000 -2.600000
v 1.800000 -0.350000 2.500000
v -1.800000 -0.350000 2.500000
v -1.800000 -0.350000 -2.600000
v 1.800000 -0.350000 -2.600000
v 1.800000 -0.350000 2.500000
v -2.000000 0.400000 2.350000
v -2.000000 -0.150000 -2.600000
v -2.000000 -0.150000 2.350000
v -2.000000 0.400000 2.350000
v -2.000000 0.400000 -2.600000
v -2.000000 -0.150000 -2.600000
v 2.000000 0.400000 2.350000
v 2.000000 -0.150000 -2.600000
v 2.000000 0.400000 -2.600000
v 2.000000 0.400000 2.350000
v 2.000000 -0.150000 2.350000
v 2.000000 -0.150000 -2.600000
v -2.000000 0.400000 -2.600000
v 2.000000 -0.150000 -2.600000
v -2.000000 -0.150000 -2.600000
v -2.000000 0.400000 -2.600000
v 2.000000 0.400000 -2.600000
v 2.000000 -0.150000 -2.600000
v -2.000000 -0.150000 2.350000
v -1.800000 -0.350000 -2.600000
v -1.800000 -0.350000 2.500000
v -2.000000 -0.150000 2.350000
v -2.000000 -0.150000 -2.600000
v -1.800000 -0.350000 -2.600000
v 2.000000 -0.150000 2.350000
v 1.800000 -0.350000 -2.600000
v 2.000000 -0.150000 -2.600000
v 2.000000 -0.150000 2.350000
v 1.800000 -0.350000 2.500000
v 1.800000 -0.350000 -2.600000
v -2.000000 -0.150000 -2.600000
v 1.800000 -0.350000 -2.600000
v -1.800000 -0.350000 -2.600000
v -2.000000 -0.150000 -2.600000
v 2.000000 -0.150000 -2.600000
v 1.800000 -0.350000 -2.600000
v -2.000000 0.400000 -2.600000
v 2.000000 0.400000 2.350000
v 2.000000 0.400000 -2.600000
v -2.000000 0.400000 -2.600000
v -2.000000 0.400000 2.350000
v 2.000000 0.400000 2.350000
vt 0.454900 0.823530
vt 0.607840 0.815690
vt 0.603920 0.823530
vt 0.454900 0.823530
vt 0.450980 0.815690
vt 0.607840 0.815690
vt 0.454900 0.843140
vt 0.603920 0.823530
vt 0.603920 0.843140
vt 0.454900 0.843140
vt 0.454900 0.823530
vt 0.603920 0.823530
vt 0.439220 0.823530
vt 0.450980 0.815690
vt 0.454900 0.823530
vt 0.376470 0.803920
vt 0.376470 0.792160
vt 0.384310 0.792160
vt 0.454900 0.843140
vt 0.439220 0.823530
vt 0.454900 0.823530
vt 0.454900 0.843140
vt 0.439220 0.843140
vt 0.439220 0.823530
vt 0.607840 0.815690
vt 0.623530 0.823530
vt 0.603920 0.823530
vt 0.435290 0.792160
vt 0.435290 0.803920
vt 0.427450 0.792160
vt 0.631370 0.823530
vt 0.627450 0.819610
vt 0.631370 0.815690
vt 0.631370 0.823530
vt 0.627450 0.823530
vt 0.627450 0.819610
vt 0.603920 0.843140
vt 0.623530 0.823530
vt 0.623530 0.843140
vt 0.603920 0.843140
vt 0.603920 0.823530
vt 0.623530 0.823530
vt 0.192160 0.792160
vt 0.349020 0.784310
vt 0.364710 0.792160
vt 0.192160 0.792160
vt 0.211760 0.784310
vt 0.349020 0.784310
vt 0.172550 0.784310
vt 0.001673 0.796080
vt 0.013433 0.784310
vt 0.172550 0.784310
vt 0.184310 0.796080
vt 0.001673 0.796080
vt 0.403920 0.811760
vt 0.384310 0.792160
vt 0.403920 0.792160
vt 0.403920 0.811760
vt 0.384310 0.811760
vt 0.384310 0.792160
vt 0.407840 0.811760
vt 0.427450 0.792160
vt 0.427450 0.811760
vt 0.407840 0.811760
vt 0.407840 0.792160
vt 0.427450 0.792160
vt 0.376470 0.803920
vt 0.384310 0.792160
vt 0.384310 0.811760
vt 0.427450 0.792160
vt 0.435290 0.803920
vt 0.427450 0.811760
vt 0.192160 0.792160
vt 0.372550 0.811760
vt 0.188240 0.811760
vt 0.192160 0.792160
vt 0.364710 0.792160
vt 0.372550 0.811760
vt 0.184310 0.998231
vt 0.001673 0.796080
vt 0.184310 0.796080
vt 0.184310 0.998231
vt 0.001673 0.998231
vt 0.001673 0.796080
vt 0.403920 0.811760
vt 0.384310 0.998231
vt 0.384310 0.811760
vt 0.403920 0.811760
vt 0.403920 0.998231
vt 0.384310 0.998231
vt 0.407840 0.811760
vt 0.427450 0.998231
vt 0.407840 0.998231
vt 0.407840 0.811760
vt 0.427450 0.811760
vt 0.427450 0.998231
vt 0.623530 0.811760
vt 0.439220 0.792160
vt 0.623530 0.792160
vt 0.623530 0.811760
vt 0.439220 0.811760
vt 0.439220 0.792160
vt 0.384310 0.811760
vt 0.376470 0.998231
vt 0.376470 0.803920
vt 0.384310 0.811760
vt 0.384310 0.998231
vt 0.376470 0.998231
vt 0.427450 0.811760
vt 0.435290 0.998231
vt 0.427450 0.998231
vt 0.427450 0.811760
vt 0.435290 0.803920
vt 0.435290 0.998231
vt 0.623530 0.792160
vt 0.447060 0.784310
vt 0.611760 0.784310
vt 0.623530 0.792160
vt 0.439220 0.792160
vt 0.447060 0.784310
vt 0.188240 0.998231
vt 0.372550 0.811760
vt 0.372550 0.998231
vt 0.188240 0.998231
vt 0.188240 0.811760
vt 0.372550 0.811760
vn 0.0000 -0.7071 0.7071
vn 0.0000 0.0000 1.0000
vn -0.4832 -0.5557 0.6765
vn -0.5542 -0.7323 0.3958
vn -0.5812 0.0000 0.8137
vn 0.4832 -0.5557 0.6765
vn 0.5542 -0.7323 0.3958
vn 0.5812 0.0000 0.8137
vn 0.0000 1.0000 0.0000
vn 0.0000 -1.0000 -0.0000
vn -0.9487 0.0000 0.3162
vn 0.9487 0.0000 0.3162
vn -0.7730 -0.5797 0.2577
vn 0.7730 -0.5797 0.2577
vn -1.0000 0.0000 0.0000
vn 1.0000 0.0000 0.0000
vn 0.0000 0.0000 -1.0000
vn -0.7071 -0.7071 -0.0000
vn 0.7071 -0.7071 -0.0000
usemtl mtl25
s 1
f 1/1/1 2/2/1 3/3/1
f 4/4/1 5/5/1 6/6/1
f 7/7/2 8/8/2 9/9/2
f 10/10/2 11/11/2 12/12/2
f 13/13/3 14/14/3 15/15/3
f 16/16/4 17/17/4 18/18/4
f 19/19/5 20/20/5 21/21/5
f 22/22/5 23/23/5 24/24/5
f 25/25/6 26/26/6 27/27/6
f 28/28/7 29/29/7 30/30/7
f 31/31/5 32/32/5 33/33/5
f 34/34/5 35/35/5 36/36/5
f 37/37/8 38/38/8 39/39/8
f 40/40/8 41/41/8 42/42/8
f 43/43/9 44/44/9 45/45/9
f 46/46/9 47/47/9 48/48/9
f 49/49/10 50/50/10 51/51/10
f 52/52/10 53/53/10 54/54/10
f 55/55/11 56/56/11 57/57/11
f 58/58/11 59/59/11 60/60/11
f 61/61/12 62/62/12 63/63/12
f 64/64/12 65/65/12 66/66/12
f 67/67/13 68/68/13 69/69/13
f 70/70/14 71/71/14 72/72/14
f 73/73/9 74/74/9 75/75/9
f 76/76/9 77/77/9 78/78/9
f 79/79/10 80/80/10 81/81/10
f 82/82/10 83/83/10 84/84/10
f 85/85/15 86/86/15 87/87/15
f 88/88/15 89/89/15 90/90/15
f 91/91/16 92/92/16 93/93/16
f 94/94/16 95/95/16 96/96/16
f 97/97/17 98/98/17 99/99/17
f 100/100/17 101/101/17 102/102/17
f 103/103/18 104/104/18 105/105/18
f 106/106/18 107/107/18 108/108/18
f 109/109/19 110/110/19 111/111/19
f 112/112/19 113/113/19 114/114/19
f 115/115/17 116/116/17 117/117/17
f 118/118/17 119/119/17 120/120/17
f 121/121/9 122/122/9 123/123/9
f 124/124/9 125/125/9 126/126/9
